<svg width="16" height="17" viewBox="0 0 16 17" fill="none" xmlns="http://www.w3.org/2000/svg">
<g clip-path="url(#clip0_30_79)">
<path d="M1 8.5C1 12.366 4.13401 15.5 8 15.5C11.866 15.5 15 12.366 15 8.5C15 4.63401 11.866 1.5 8 1.5C4.13401 1.5 1 4.63401 1 8.5ZM16 8.5C16 12.9183 12.4183 16.5 8 16.5C3.58172 16.5 0 12.9183 0 8.5C0 4.08172 3.58172 0.5 8 0.5C12.4183 0.5 16 4.08172 16 8.5ZM8.14648 5.49219C6.93359 5.49219 6.21875 6.41211 6.21875 7.99414V9.05469C6.21875 10.625 6.92188 11.5156 8.14648 11.5156C9.125 11.5156 9.78711 10.9297 9.875 10.0977H11.1699V10.1914C11.0703 11.6387 9.81641 12.6582 8.14062 12.6582C6.04883 12.6582 4.87109 11.3223 4.87109 9.05469V7.98242C4.87109 5.7207 6.07227 4.34375 8.14062 4.34375C9.82227 4.34375 11.0762 5.39844 11.1699 6.91602V7.00391H9.875C9.78711 6.125 9.10742 5.49219 8.14648 5.49219Z" fill="#4B4B4B"/>
</g>
<defs>
<clipPath id="clip0_30_79">
<rect width="16" height="17" fill="white"/>
</clipPath>
</defs>
</svg>
