<svg width="52" height="52" viewBox="0 0 52 52" fill="none" xmlns="http://www.w3.org/2000/svg">
<path d="M20.2499 15.738C20.149 14.6788 20.5525 6.50808 20.5525 6.50808C20.5525 6.50808 20.625 5.94669 20.8552 5.7011C21.0781 5.4632 21.2862 5.32936 21.6117 5.34804C21.9021 5.3647 22.0757 5.48235 22.2674 5.7011C22.4974 5.96364 22.5196 6.55852 22.5196 6.55852C22.5196 6.55852 22.5196 14.3762 22.6709 14.6788C22.8222 14.9814 23.0411 15.2743 23.4274 15.3345C23.8366 15.3982 24.3353 15.2336 24.4361 14.6788C24.537 14.124 24.4361 8.17249 24.4361 8.17249C24.4361 8.17249 24.3977 6.22541 24.5875 5.90285C25.0918 5.04543 26.3023 5.39848 26.4536 6.10459C26.6049 6.8107 26.3527 14.2249 26.6049 14.6788C26.8571 15.1327 27.1099 15.346 27.5632 15.3345C28.0004 15.3233 28.2693 15.1327 28.4711 14.6788C28.6728 14.2249 28.4711 6.76026 28.4711 6.30633C28.4711 5.85241 28.925 5.44891 29.4798 5.39848C30.0346 5.34805 30.4381 5.75154 30.4885 6.15503C30.539 6.55852 30.892 14.6788 30.7911 15.5362C30.6903 16.3936 30.3368 18.0692 29.2276 19.1172C28.4528 19.8493 27.1248 20.2268 26.9075 20.5799C26.6903 20.9329 27.0084 44.638 26.9075 45.2937C26.8067 45.9494 26.3687 46.7177 25.6466 46.6555C24.9754 46.5977 24.7388 46.1511 24.5875 45.2937C24.4361 44.4363 24.5874 20.8825 24.4361 20.5799C24.2848 20.2772 22.9684 20.0213 22.1665 19.3189C20.9733 18.2739 20.3508 16.7971 20.2499 15.738Z" fill="#3DC721"/>
<path d="M28.8241 30.5663C28.4207 32.0289 28.1685 38.6361 28.8241 38.5352C29.4798 38.4343 33.0103 34.349 33.1617 33.9455C33.313 33.542 32.6916 32.1489 32.6069 30.9698C32.5021 29.5127 32.7582 27.641 33.0608 27.2879C33.3634 26.9349 33.666 26.859 33.8678 26.9349C34.0695 27.0107 34.1031 27.0862 34.1704 27.2879C34.2376 27.4897 34.0695 32.0289 34.5235 32.4324C34.9774 32.8359 39.5671 25.9261 40.2732 25.5731C40.9793 25.22 41.0465 25.5226 41.0802 25.5731C41.1138 25.6235 41.2315 26.1279 41.0802 26.5818C40.9289 27.0357 38.4585 29.4326 38.7601 29.9106C39.0617 30.3886 42.795 28.5993 43.1481 28.5488C43.5011 28.4984 43.7029 28.9019 43.7029 28.9019C43.7029 28.9019 43.9046 29.2045 43.7029 29.608C43.5011 30.0115 41.6953 30.7736 40.2732 31.1211C39.1956 31.3844 37.8523 31.3228 37.4488 31.4237C37.0453 31.5246 34.6747 34.349 34.8765 34.5507C35.0782 34.7525 37.6505 34.4499 39.3149 33.9455C39.5748 33.8667 41.3828 32.5837 41.7358 33.6429C42.0889 34.702 38.0777 36.411 33.5651 36.0134C33.5651 36.0134 29.5807 39.5944 29.5302 40.1492C29.4798 40.704 34.3001 40.8579 37.0957 39.897C40.1883 38.834 41.7703 37.3905 43.7029 34.7525C45.673 32.0633 46.1985 30.0389 46.6282 26.7331C47.1632 22.6179 44.8726 17.001 44.6612 17.4024L39.3149 20.0251C39.3149 20.0251 35.1839 21.5168 33.1617 23.3539C30.7289 25.5639 29.2276 29.1036 28.8241 30.5663Z" fill="#3DC721"/>
<path d="M19.8464 35.509C19.8465 36.4169 22.8222 38.737 22.8222 38.737C22.8222 38.737 23.377 31.8272 22.6709 29.608C21.9648 27.3888 21.5087 26.6907 20.2499 25.1696C19.0826 23.759 18.1723 23.1885 16.6689 22.1434C14.7302 20.7955 11.3227 19.3189 11.3227 19.3189L7.23732 17.1502C7.04507 17.038 5.83016 19.7657 5.57292 21.6895C5.21788 24.3446 5.06142 25.9194 5.57292 28.5488C6.07087 31.1087 6.53892 32.623 8.0443 34.7525C9.3637 36.6189 10.366 37.5702 12.3314 38.737C14.3292 39.9229 16.4703 40.5949 17.9803 40.6031C19.4902 40.6113 20.2769 40.495 21.6117 40.1492C19.498 37.731 17.9299 35.4082 17.1229 35.1055C16.3159 34.8029 15.8115 35.0047 13.6428 34.7525C11.474 34.5003 10.1626 33.9959 9.60783 33.2394C9.05305 32.4828 9.35565 32.1298 9.35565 32.1298C9.35565 32.1298 9.45654 31.8776 10.0618 32.1298C10.667 32.382 11.9279 33.2898 13.6428 33.542C15.3576 33.7942 15.9124 33.542 15.9124 33.542C15.9124 33.542 14.1962 30.6626 13.6428 30.5663C13.0893 30.4699 10.0113 29.9106 9.35565 29.608C8.69999 29.3054 7.33818 28.3471 7.28776 28.0949C7.23734 27.8427 7.1869 27.3383 7.69125 27.2375C8.1956 27.1366 8.64209 28.1298 9.35565 28.5488C10.5807 29.2682 12.4827 29.7089 12.8358 29.608C13.1888 29.5071 8.62627 23.8582 8.39736 23.3539C8.16844 22.8495 8.24604 22.2947 8.39736 22.1434C8.54868 21.9921 9.00261 21.8912 9.35565 22.1434C9.70869 22.3956 15.1054 30.8689 15.9124 30.5663C16.7194 30.2637 16.6689 25.5226 16.6689 25.5226C16.6689 25.5226 16.8707 24.413 17.1229 24.3122C17.3751 24.2113 17.7732 25.2108 17.9803 25.8757C18.2907 26.8724 18.0713 27.5089 17.9803 28.5488C17.8449 30.0961 16.9715 32.0289 17.1229 32.4324C17.2742 32.8359 18.3334 34.2481 18.636 34.2481C18.9386 34.2481 19.4429 31.8776 19.5438 31.4237C19.6447 30.9697 20.0482 29.9106 20.2499 29.9106C20.4517 29.9106 20.603 30.5663 20.6534 31.4237C20.7038 32.2811 19.8464 34.6012 19.8464 35.509Z" fill="#3DC721"/>
<path d="M52 26C52 40.3594 40.3594 52 26 52C11.6406 52 0 40.3594 0 26C0 11.6406 11.6406 0 26 0C40.3594 0 52 11.6406 52 26ZM2.09351 26C2.09351 39.2032 12.7968 49.9065 26 49.9065C39.2032 49.9065 49.9065 39.2032 49.9065 26C49.9065 12.7968 39.2032 2.09351 26 2.09351C12.7968 2.09351 2.09351 12.7968 2.09351 26Z" fill="#3DC721"/>
</svg>
